<?xml version="1.0" encoding="UTF-8" standalone="no"?>
<!-- Created with Inkscape (http://www.inkscape.org/) -->

<svg
   width="369.84781mm"
   height="369.84781mm"
   viewBox="0 0 369.84781 369.84781"
   version="1.1"
   id="svg1505"
   xml:space="preserve"
   inkscape:version="1.2 (dc2aedaf03, 2022-05-15)"
   sodipodi:docname="WheelLogo.svg"
   xmlns:inkscape="http://www.inkscape.org/namespaces/inkscape"
   xmlns:sodipodi="http://sodipodi.sourceforge.net/DTD/sodipodi-0.dtd"
   xmlns="http://www.w3.org/2000/svg"
   xmlns:svg="http://www.w3.org/2000/svg"><sodipodi:namedview
     id="namedview1507"
     pagecolor="#ffffff"
     bordercolor="#000000"
     borderopacity="0.25"
     inkscape:showpageshadow="2"
     inkscape:pageopacity="0.0"
     inkscape:pagecheckerboard="0"
     inkscape:deskcolor="#d1d1d1"
     inkscape:document-units="mm"
     showgrid="false"
     inkscape:zoom="0.46057099"
     inkscape:cx="754.49824"
     inkscape:cy="892.37058"
     inkscape:window-width="1920"
     inkscape:window-height="1057"
     inkscape:window-x="-1928"
     inkscape:window-y="-269"
     inkscape:window-maximized="1"
     inkscape:current-layer="layer1" /><defs
     id="defs1502" /><g
     inkscape:label="Layer 1"
     inkscape:groupmode="layer"
     id="layer1"
     transform="translate(224.56219,225.71114)"><path
       style="fill:#000000;stroke-width:0.264555"
       d="m -45.855326,98.745179 c -13.80849,-1.011737 -22.294005,-2.453958 -32.730952,-5.563087 -6.495535,-1.934982 -15.720101,-5.439223 -19.807834,-7.524631 l -0.989894,-0.505009 3.852754,-6.685779 c 2.119013,-3.677182 3.889338,-6.729802 3.934051,-6.783586 0.04471,-0.05378 1.4262,0.498395 3.069967,1.227085 13.548279,6.00598 28.265934,9.401701 43.792385,10.103962 l 5.140234,0.232491 5.167888,-0.244422 C -18.726963,82.25965 -3.9811333,78.801864 9.8580903,72.61776 l 1.4796527,-0.661176 3.943724,6.632101 c 2.169049,3.647658 3.977686,6.716045 4.019195,6.818587 0.04151,0.102568 -1.148986,0.732579 -2.645549,1.400024 -13.7991704,6.154183 -28.180607,9.937054 -43.472732,11.435044 l -4.22263,0.413658 -6.746151,0.09304 c -3.710383,0.05116 -7.3414,0.04944 -8.068926,-0.004 z m 69.925861,-6.396382 -2.826749,-4.94821 1.17328,-0.645196 c 0.645305,-0.354874 1.17328,-0.753426 1.17328,-0.885651 0,-0.132224 -13.6311931,-23.082763 -30.2915406,-51.001179 C -23.361542,6.9501409 -36.992736,-15.95691 -36.992736,-16.035998 c 0,-0.07909 7.734711,-0.174421 17.188244,-0.211851 l 17.1882426,-0.06805 -8.3256526,-14.919462 c -4.579107,-8.205706 -8.325652,-14.961778 -8.325652,-15.013493 0,-0.05172 26.9647621,-0.09403 59.921694,-0.09403 h 59.92169 v -1.984162 -1.984162 h 5.68794 5.68793 v 11.640418 11.640417 h -5.68793 -5.68794 v -1.719607 -1.719607 H 64.771815 c -19.6922,0 -39.75207,-0.07878 -44.577497,-0.175067 l -8.773499,-0.175064 v 0.275981 c 0,0.151791 3.920088,7.134603 8.711305,15.517357 L 28.843429,0.21499006 11.597748,0.28302301 -5.64793,0.3510586 16.355052,38.542327 c 12.10164,21.005202 22.120846,38.309132 22.264901,38.453182 l 0.261923,0.261936 1.234345,-0.723373 1.234334,-0.723372 0.204262,0.233814 c 0.365457,0.41834 5.627693,9.66771 5.536844,9.732076 -0.36072,0.255613 -20.021475,11.532374 -20.09726,11.527109 -0.05342,-0.0037 -1.369154,-2.233399 -2.923866,-4.954902 z M -116.20767,91.337138 c -5.3731,-3.110266 -9.87281,-5.758567 -9.99937,-5.88513 l -0.23012,-0.23011 2.56711,-4.471799 c 1.4119,-2.459461 2.71809,-4.637145 2.90263,-4.839265 l 0.33554,-0.367493 1.23672,0.724774 1.23671,0.724775 0.19362,-0.225004 c 0.34309,-0.398711 43.934402,-76.21603813 43.934402,-76.41405751 0,-0.10511826 -7.738237,-0.14874601 -17.196084,-0.0969488 -9.457848,0.0517999 -17.196078,0.0798612 -17.196068,0.0623609 0,-0.0174871 3.92552,-6.92238429 8.723355,-15.34418659 l 8.723344,-15.312369 -44.372119,-0.06791 c -24.40467,-0.03735 -44.52094,-0.01133 -44.70282,0.05783 l -0.33069,0.125751 v 1.595634 1.595631 h -5.68794 -5.68793 v -11.640417 -11.640418 h 5.67634 5.67635 l 0.0777,1.91515 0.0777,1.915153 53.57238,-0.06777 c 29.464806,-0.03727 56.297881,-0.142865 59.629056,-0.234647 l 6.056678,-0.166876 -0.501024,0.849298 c -0.275566,0.467112 -4.441039,7.300307 -9.256611,15.184872 -4.815569,7.884568 -8.709535,14.390093 -8.653259,14.456721 0.05628,0.06663 7.825652,0.185681 17.265274,0.264555 l 17.162951,0.14341 -29.207566,50.529994 c -31.411279,54.342469 -29.551909,50.985426 -28.487139,51.433 0.40014,0.168177 1.01534,0.525565 1.36711,0.794194 l 0.63958,0.488394 -2.71586,4.727412 c -1.49373,2.600073 -2.79346,4.804609 -2.8883,4.898976 -0.0948,0.09437 -4.56861,-2.37319 -9.9417,-5.483484 z M 36.42952,66.30114 32.476834,59.419272 33.258552,58.854606 c 25.360879,-18.319027 43.600223,-49.6157659 47.740032,-81.91666 0.158495,-1.236794 0.347837,-2.635628 0.420721,-3.10852 l 0.132542,-0.859804 h 4.311347 c 2.371232,0 5.914125,0.07687 7.873075,0.170818 l 3.561703,0.170818 -0.343048,3.202257 C 92.877762,14.570474 71.916413,50.636313 41.047295,72.707523 l -0.665091,0.475511 z m -158.88267,4.779 c -30.83809,-23.29065 -49.40752,-56.463554 -54.0685,-96.589327 l -0.14597,-1.256636 h 7.91537 7.91538 l 0.15071,1.124358 c 1.24253,9.269823 2.26382,14.360717 4.27528,21.311126 7.09379,24.511949 22.03887,46.363987 42.64131,62.348237 l 1.66371,1.29079 -0.15322,0.399293 c -0.16806,0.437945 -7.55379,13.263409 -7.63793,13.263409 -0.0286,0 -1.17888,-0.851046 -2.55614,-1.89125 z M -176.5348,-51.435571 c 4.74547,-40.894811 23.4649,-74.077139 54.99475,-97.484459 l 3.68176,-2.73329 0.18241,0.2072 c 0.39256,0.44592 7.66481,13.2593 7.6464,13.47262 -0.0108,0.12478 -1.35008,1.20572 -2.97625,2.40208 -23.25984,17.11216 -40.26325,44.309732 -46.0651,73.682762 -0.54569,2.762641 -1.73362,10.716991 -1.73362,11.608231 v 0.233769 h -7.94576 -7.94576 z m 257.952809,0.529109 c -0.0736,-0.472892 -0.321302,-2.347925 -0.550433,-4.16674 -3.955943,-31.401775 -21.883852,-61.859298 -47.687113,-81.015038 -1.345923,-0.99918 -2.447133,-1.91199 -2.447133,-2.02847 0,-0.22161 7.31506,-12.98215 7.630793,-13.3113 0.416431,-0.43414 10.407118,7.48352 15.967825,12.65458 23.393086,21.7538 39.2558,53.268203 42.529906,84.493893 0.160188,1.527805 0.34408,3.105214 0.408684,3.505353 l 0.11741,0.727526 h -7.91805 -7.918051 z M -30.446546,-67.719558 c -4.475134,-7.667778 -8.378947,-14.339317 -8.675135,-14.82564 l -0.538528,-0.884222 -8.779258,14.707217 c -4.828591,8.088972 -8.841585,14.702626 -8.917766,14.697009 -0.07618,-0.0056 -13.471249,-23.171643 -29.76682,-51.480056 -16.295567,-28.30842 -29.722097,-51.52781 -29.836727,-51.59866 -0.11462,-0.0708 -0.85703,0.23725 -1.64977,0.68465 l -1.44137,0.81346 -0.37223,-0.59439 c -1.56943,-2.50609 -5.19982,-9.04415 -5.1331,-9.24432 0.10073,-0.30218 19.2405,-11.38974 19.72864,-11.42869 l 0.34525,-0.0275 2.74567,4.74959 c 1.51012,2.61228 2.69156,4.83716 2.62541,4.94419 -0.0662,0.10703 -0.77036,0.56654 -1.56491,1.02113 l -1.44465,0.82655 0.36688,0.57858 c 0.20178,0.31823 10.269563,17.8408 22.372849,38.93906 12.103283,21.09826 22.183794,38.638637 22.401137,38.978619 l 0.395163,0.618151 8.845108,-15.16867 c 4.864809,-8.34277 8.932764,-15.19603 9.039901,-15.22947 0.107137,-0.0334 4.004386,6.60174 8.660553,14.74484 4.656167,8.143101 8.525283,14.804568 8.598035,14.803258 0.118648,-0.0021 45.004452,-77.489578 45.178855,-77.993348 0.03973,-0.11476 -0.459905,-0.5013 -1.110306,-0.85897 l -1.182542,-0.65031 2.757623,-4.75477 c 1.516694,-2.61512 2.7962,-4.8622 2.843352,-4.9935 0.07927,-0.22076 19.244216,10.64928 19.952165,11.31653 l 0.316223,0.29806 -2.734229,4.71081 c -1.503836,2.59094 -2.797113,4.77368 -2.873939,4.85052 -0.07685,0.0768 -0.854756,-0.25639 -1.728684,-0.74051 -1.927423,-1.06772 3.158312,-9.274 -31.2591564,50.43949 -16.1861036,28.082509 -29.5637846,51.201682 -29.7281816,51.375942 l -0.298902,0.316839 z M -90.75384,-151.02137 c -0.493842,-0.84718 -2.253368,-3.90036 -3.910058,-6.78484 l -3.012165,-5.2445 0.380817,-0.24249 c 0.797963,-0.5081 7.945487,-3.42507 11.492123,-4.69003 33.173413,-11.83181 70.187734,-10.39822 102.171482,3.95716 l 1.376051,0.61762 -2.533386,4.36516 c -1.393361,2.40083 -3.169784,5.45374 -3.947607,6.78424 l -1.4142237,2.41908 -3.7777599,-1.52507 c -13.5392871,-5.46579 -26.6818684,-8.21913 -42.4027814,-8.88328 l -3.968324,-0.16765 -5.291099,0.30069 c -15.726971,0.89375 -28.148575,3.86231 -43.95837,10.50532 l -0.306805,0.12892 z"
       id="path1780" /></g></svg>
